<svg id="Layer_1" data-name="Layer 1" xmlns="http://www.w3.org/2000/svg" viewBox="0 0 351.09 70.76"><g id="_3r5hx9.tif" data-name="3r5hx9.tif"><path d="M67.94,49.45c3.58,1.41,5.87-1,7.94-3.08A57,57,0,0,0,88,28.77c2.55-5.83,3.58-11.68.12-17.68a8.9,8.9,0,0,0-2.82-2.87c-3.11,1.7-4,4.66-5,7.61-2.53,7.89-3.11,16.07-3.53,24.26-.07,1.43-1.07,3,.22,4.4" style="fill:none;stroke:#000;stroke-linecap:round;stroke-linejoin:round;stroke-width:3px"/><path d="M349.59,48.63c-4.33,1.48-8.23,3.91-12.65,5.32-10.8,3.46-21.49,7.24-32.55,9.84-5.64,1.32-11.38.8-17.08.74-1.74,0-3.76-.58-4.14-3" style="fill:none;stroke:#000;stroke-linecap:round;stroke-linejoin:round;stroke-width:3px"/><path d="M192.5,61c-.84-.2-1.33.32-1.94.8a17.17,17.17,0,0,1-9.08,3.56c-3.45.35-4.63-.87-4.67-4.36-.05-4,0-8.09,0-12.13,0-3.18-1.94-4.35-4.67-2.74-5.19,3.06-9.3,7.36-13.24,11.83-1.16,1.32-2.4,2.57-3.58,3.87a2,2,0,0,1-1.91.77c-.95-.31-.84-1.29-.86-2.15a29.85,29.85,0,0,0-.28-4.13,65.35,65.35,0,0,1-.5-11.86,1.76,1.76,0,0,0-.86-1.65" style="fill:none;stroke:#000;stroke-linecap:round;stroke-linejoin:round;stroke-width:3px"/><path d="M196.36,57.44c3.43-.11,6.75-1,10.2-1.18,5.15-.24,10.29-1,15.43-1.58a175.42,175.42,0,0,0,18.74-3.32c.32-.08.55-.53.93-.91-3.49-3.15-7.69-4.32-12.22-4.89-5.25-.66-8.72,1.91-11.58,5.82" style="fill:none;stroke:#000;stroke-linecap:round;stroke-linejoin:round;stroke-width:3px"/><path d="M121.68,6.19c-2.82,2.37-3.27,5.94-4.36,9.11a159.06,159.06,0,0,0-7.1,27.28c-.44,2.91-.79,6.11.43,9.08" style="fill:none;stroke:#000;stroke-linecap:round;stroke-linejoin:round;stroke-width:3px"/><path d="M121.68,7a96.83,96.83,0,0,1,.16,17.36,46.43,46.43,0,0,1-8.71,24.53A62.14,62.14,0,0,1,109,54.38c-1.94,2.1-4.12,4-6.14,5.89-2-.24-2.19-1.72-2.67-3.09-1.59-4.53-3.33-9-4.89-13.53a5.34,5.34,0,0,0-.92-1.44c-4.54,1.45-7.84,4.73-11.23,7.82-2.25,2.06-4.17,4.47-6.61,6.35a4.81,4.81,0,0,0-1.38,2.18c-1.26,3.4-3.68,6.14-5.26,9.36" style="fill:none;stroke:#000;stroke-linecap:round;stroke-linejoin:round;stroke-width:3px"/><path d="M150.89,51.93A40.53,40.53,0,0,1,144,63c-3.44,3.89-7,7-13,6.17s-5.32-2.72-4.62-7.53c.36-2.47,2.12-4.36,3.54-6.35" style="fill:none;stroke:#000;stroke-linecap:round;stroke-linejoin:round;stroke-width:3px"/><path d="M12,1.5c1.19,7.05.68,14.16.43,21.22-.22,6.08-1.53,12.13-2.34,18.19,0,.26.17.55.26.83" style="fill:none;stroke:#000;stroke-linecap:round;stroke-linejoin:round;stroke-width:3px"/><path d="M55.81,42.56c4.69.33,9.49-.77,14.23.87-1,4.26-3.65,7.25-6,10.44s-5.32,5.38-8.31,7.66c-5.37,4.09-13.83,3-17.12-.43a7.19,7.19,0,0,1-1.79-6.68,25.31,25.31,0,0,1,8.77-15.14,11.26,11.26,0,0,1,5.23-2.19c3.34-.69,5.23,1.72,4.42,5.2-.92,3.93-1.67,7.9-2.51,11.85a12.23,12.23,0,0,1-.54,1.65c-.93,2.42-1.44,2.61-3.59,1.38-3.53-2-6.92-4.31-10.74-5.79" style="fill:none;stroke:#000;stroke-linecap:round;stroke-linejoin:round;stroke-width:3px"/><path d="M305.22,42c-8.7,9.13-19.65,15.55-29,24.66-.61-2.78.51-4.72.62-6.75s.21-4.22.28-6.33-.88-2.57-2.76-1.94c-3.6,1.2-6.68,3.36-9.91,5.25a23.77,23.77,0,0,0-3.29,2.23,2.12,2.12,0,0,1-2.21.48c-1-.39-.66-1.45-.54-2.16.57-3.23,1.26-6.44,1.9-9.65.18-.91.95-1.76.28-2.76" style="fill:none;stroke:#000;stroke-linecap:round;stroke-linejoin:round;stroke-width:3px"/><path d="M218.13,55.52c-1.1,4.22-4.49,6.37-8,7.88a30.93,30.93,0,0,1-11,2.94c-4.76.2-5.32,0-6.07-4.76a5,5,0,0,0-.43-.93c2.3-2.41,5.13-4.42,5.95-7.89" style="fill:none;stroke:#000;stroke-linecap:round;stroke-linejoin:round;stroke-width:3px"/><path d="M260.85,43.94c-2.16,1.52-3,4.06-4.31,6.13a54.17,54.17,0,0,1-11.38,12.35c-1.12.93-2.2,1.5-3.6.81s-.83-2-.79-3c.12-3.13.73-6.08,3-8.57,2.71-3,4.71-6.6,7.75-9.34" style="fill:none;stroke:#000;stroke-linecap:round;stroke-linejoin:round;stroke-width:3px"/><path d="M11.44,47c2.89,2.52,6.51,2.19,9.93,2.44,5.36.4,10.74.58,16,2" style="fill:none;stroke:#000;stroke-linecap:round;stroke-linejoin:round;stroke-width:3px"/><path d="M126.64,52.48c-2.44,3.75-4.49,7.76-8,10.8-2.17,1.9-4.35,1.77-6.13-.57s-2.36-5.17-2.72-8" style="fill:none;stroke:#000;stroke-linecap:round;stroke-linejoin:round;stroke-width:3px"/><path d="M127.74,52.48c4,3.86,7.27,3.88,11.89.89,4.92-3.19,8.37-7.65,11.92-12.06-1.54-1.81-3.73-2-6.16-.38A69.13,69.13,0,0,0,135.2,49.2c-1.66,1.64-3.14,3.47-4.7,5.21" style="fill:none;stroke:#000;stroke-linecap:round;stroke-linejoin:round;stroke-width:3px"/><path d="M241,55.52c-1.84,1.37-3.63,2.81-5.52,4.12-4.71,3.26-13.74,1.91-16.8-2.75" style="fill:none;stroke:#000;stroke-linecap:round;stroke-linejoin:round;stroke-width:3px"/><path d="M127.46,49.73c2.76-1.77,3.09-5.24,5.37-7.3-1.89-2.08-3.77-1.51-5.11,1.23s-.59,5.5-.53,8.27" style="fill:none;stroke:#000;stroke-linecap:round;stroke-linejoin:round;stroke-width:3px"/><path d="M29.91,36.5c-6.81,0-13.74.67-18.9,5.37-4.88,4.43-9.78,9.38-9.5,17,.05,1.23,0,2.44,1.11,3.31" style="fill:none;stroke:#000;stroke-linecap:round;stroke-linejoin:round;stroke-width:3px"/><path d="M36.24,33.19C28.47,38.6,20,42.78,11.42,46.64a2.68,2.68,0,0,1-2.73.06" style="fill:none;stroke:#000;stroke-linecap:round;stroke-linejoin:round;stroke-width:3px"/><path d="M187.54,54.41c2.91.94,5.26-1.24,8-1.4,3.36-.19,5.46-2,6.67-5.19.88-2.3,2.93-4,3.85-6.34.23-.59,1.13-1-.45-1.85-1.54-.34-2.57,1.75-3.61,2.77a98.31,98.31,0,0,1-12.48,10.13c-.51.36-1.57.55-1.42,1.61" style="fill:none;stroke:#000;stroke-linecap:round;stroke-linejoin:round;stroke-width:3px"/><path d="M218.13,55c-1.11-5.91-2.22-6.46-8.55-5.59-3,.41-5.75,1.73-8.81,1.46" style="fill:none;stroke:#000;stroke-linecap:round;stroke-linejoin:round;stroke-width:3px"/><path d="M8.13,45.87c.23,3-1.1,5.78-2,8.51-1,2.93-1.59,6.12-3.74,8.6-.1.11.16.53.25.8" style="fill:none;stroke:#000;stroke-linecap:round;stroke-linejoin:round;stroke-width:3px"/><path d="M55,45l11.3,5.24" style="fill:none;stroke:#000;stroke-linecap:round;stroke-linejoin:round;stroke-width:3px"/><path d="M226.13,24.1a25.69,25.69,0,0,0-.55,10.47" style="fill:none;stroke:#000;stroke-linecap:round;stroke-linejoin:round;stroke-width:3px"/><path d="M234.12,24.65c-.09,3.31-.19,6.61-.28,9.92" style="fill:none;stroke:#000;stroke-linecap:round;stroke-linejoin:round;stroke-width:3px"/><path d="M76.2,47c.6,2.19.31,4.42.19,6.61a7.42,7.42,0,0,0,.09,2.49" style="fill:none;stroke:#000;stroke-linecap:round;stroke-linejoin:round;stroke-width:3px"/></g></svg>